<?xml version="1.0" standalone="no"?>
<!DOCTYPE svg PUBLIC "-//W3C//DTD SVG 20010904//EN"
 "http://www.w3.org/TR/2001/REC-SVG-20010904/DTD/svg10.dtd">
<svg version="1.0" xmlns="http://www.w3.org/2000/svg"
 width="512.000000pt" height="512.000000pt" viewBox="0 0 512.000000 512.000000"
 preserveAspectRatio="xMidYMid meet">
<metadata>
Created by potrace 1.10, written by Peter Selinger 2001-2011
</metadata>
<g transform="translate(0.000000,512.000000) scale(0.100000,-0.100000)"
fill="#000000" stroke="none">
<path d="M1555 5070 c-203 -23 -543 -86 -576 -106 -20 -12 -3 -252 31 -435 40
-213 106 -356 215 -464 67 -68 82 -77 335 -202 253 -125 461 -247 580 -338
164 -126 303 -285 378 -432 26 -51 49 -93 53 -93 3 0 25 35 48 77 24 43 78
125 121 183 153 208 197 295 226 448 25 132 10 395 -31 555 l-7 27 666 0 c602
0 669 -2 692 -16 55 -36 71 -120 32 -169 -39 -50 -67 -55 -320 -55 -223 0
-235 -1 -283 -24 -175 -81 -215 -305 -80 -441 68 -67 107 -78 307 -84 170 -6
177 -7 202 -30 69 -65 39 -175 -53 -201 -21 -6 -180 -10 -372 -10 -388 0 -402
-2 -479 -80 -65 -64 -80 -114 -80 -267 l0 -123 -600 0 c-434 0 -606 -3 -625
-12 -16 -7 -29 -24 -36 -47 -6 -24 -9 -313 -7 -856 l3 -820 415 -5 415 -5 24
-37 24 -38 309 0 309 0 11 30 c5 17 18 35 28 40 11 6 179 10 424 10 l406 0 0
844 c0 816 -1 845 -19 867 l-19 24 -454 5 -453 5 0 115 c1 130 11 156 70 184
28 14 85 16 387 16 l355 0 62 31 c91 45 140 120 148 224 7 85 -22 158 -86 218
-68 64 -119 77 -296 77 -78 0 -156 5 -173 11 -45 16 -76 70 -69 120 3 23 14
50 24 61 38 43 70 48 315 48 223 0 235 1 283 24 66 30 121 89 145 154 40 106
17 206 -64 288 -88 87 -53 84 -852 84 l-692 0 -48 73 c-158 239 -533 477 -849
537 -81 15 -321 21 -420 10z m610 -242 c153 -32 299 -174 340 -329 l13 -49
-83 0 c-81 0 -83 1 -89 26 -28 109 -167 208 -292 207 -96 -1 -160 -27 -224
-92 -67 -68 -90 -126 -90 -227 0 -59 5 -81 30 -132 55 -110 139 -163 266 -170
75 -4 86 -2 147 27 74 35 127 90 153 158 l17 43 83 0 82 0 -10 -37 c-40 -147
-151 -269 -298 -327 -58 -23 -204 -32 -264 -17 -170 42 -308 178 -352 345 -8
28 -14 83 -14 122 0 132 50 245 151 338 70 66 132 99 209 115 101 20 125 20
225 -1z m1069 -2287 c72 -12 86 -34 86 -135 l0 -82 73 -30 74 -30 62 58 c45
43 69 58 90 58 51 0 201 -128 280 -239 46 -66 42 -91 -28 -164 -57 -59 -59
-63 -46 -87 8 -14 22 -46 30 -72 l17 -48 83 0 c102 0 122 -13 136 -85 6 -28
10 -117 10 -200 0 -149 -1 -150 -26 -172 l-26 -23 -974 0 -973 0 -23 24 c-22
22 -24 34 -26 148 -4 157 9 254 37 282 17 17 37 22 107 26 l86 5 30 74 29 73
-55 57 c-64 65 -74 89 -53 128 25 49 129 161 201 218 92 73 108 73 189 -5 l63
-60 54 24 c30 13 61 26 70 29 13 4 17 24 21 92 7 131 26 142 238 143 63 1 137
-3 164 -7z"/>
<path d="M3028 2393 l-38 -4 0 -77 c0 -100 -10 -114 -102 -142 -40 -12 -101
-37 -136 -57 -79 -43 -102 -39 -167 27 -27 28 -54 50 -60 50 -6 0 -35 -25 -65
-55 l-54 -54 57 -60 c68 -71 70 -86 23 -179 -18 -37 -43 -97 -55 -135 -29 -86
-44 -97 -143 -97 l-78 0 0 -80 0 -80 201 0 202 0 -6 41 c-3 22 -1 70 4 107 32
224 237 401 464 402 184 0 352 -108 433 -277 31 -66 36 -87 40 -174 l5 -99
192 0 193 0 4 38 c3 20 3 56 0 80 l-5 42 -72 0 c-94 0 -116 16 -144 108 -11
37 -36 98 -56 135 -43 82 -41 96 29 170 l52 54 -35 40 c-20 21 -46 47 -58 58
-23 18 -23 18 -77 -33 -74 -70 -87 -71 -182 -24 -43 22 -105 48 -136 57 -81
23 -98 48 -98 141 0 74 0 74 -27 74 -16 0 -37 2 -48 4 -11 2 -37 1 -57 -1z"/>
<path d="M2964 1820 c-28 -11 -68 -35 -90 -54 -73 -62 -122 -186 -109 -274 l6
-42 307 2 307 3 0 80 c0 91 -23 149 -83 211 -82 85 -229 117 -338 74z"/>
<path d="M735 4867 c-71 -38 -195 -158 -254 -246 -64 -94 -104 -189 -152 -356
-23 -83 -57 -183 -76 -224 -18 -40 -33 -83 -33 -94 0 -11 23 -44 50 -73 57
-60 80 -106 80 -159 0 -64 -147 -328 -287 -514 -34 -46 -60 -88 -57 -92 3 -5
26 -20 52 -33 77 -39 133 -85 148 -121 22 -53 18 -132 -10 -192 l-24 -51 39
-31 c45 -37 56 -69 39 -112 -12 -29 -11 -32 24 -61 20 -16 46 -48 57 -71 20
-37 21 -51 14 -157 -9 -164 12 -210 99 -210 49 0 294 73 602 178 249 86 337
122 396 163 37 27 84 24 113 -6 71 -70 -21 -155 -260 -238 -55 -19 -108 -38
-117 -42 -15 -6 -12 -14 21 -58 54 -73 89 -137 122 -220 l28 -72 190 -3 190
-2 3 497 c3 543 2 529 63 601 15 18 46 43 69 55 38 21 57 22 294 27 l254 5
-37 69 c-92 174 -237 319 -465 467 -111 72 -165 102 -467 253 -225 113 -259
134 -316 189 -152 150 -235 336 -287 647 -11 63 -22 161 -26 218 -4 56 -10
102 -13 102 -3 0 -33 -15 -66 -33z"/>
<path d="M1740 826 c0 -74 24 -118 80 -148 34 -17 82 -18 1267 -16 1226 3
1232 3 1259 24 51 38 68 70 72 139 l4 65 -436 0 c-355 0 -436 -2 -436 -13 0
-8 -10 -23 -23 -35 -23 -22 -26 -22 -450 -22 -414 0 -428 1 -447 20 -11 11
-20 27 -20 35 0 13 -55 15 -435 15 l-435 0 0 -64z"/>
</g>
</svg>
